<svg width="81" height="25" viewBox="0 0 81 25" fill="none" xmlns="http://www.w3.org/2000/svg">
<g filter="url(#filter0_ii)">
<path d="M28.1439 7.168L21.7759 24H19.6319L14.3199 10.208L9.00787 24H6.86387L0.527873 7.168H2.70387L7.98387 21.472L13.3919 7.168H15.3439L20.7199 21.472L26.0639 7.168H28.1439ZM52.1521 16.288H38.0721C38.2001 18.0373 38.8721 19.456 40.0881 20.544C41.3041 21.6107 42.8401 22.144 44.6961 22.144C45.7415 22.144 46.7015 21.9627 47.5761 21.6C48.4508 21.216 49.2081 20.6613 49.8481 19.936L51.1281 21.408C50.3815 22.304 49.4428 22.9867 48.3121 23.456C47.2028 23.9253 45.9761 24.16 44.6321 24.16C42.9041 24.16 41.3681 23.7973 40.0241 23.072C38.7015 22.3253 37.6668 21.3013 36.9201 20C36.1735 18.6987 35.8001 17.2267 35.8001 15.584C35.8001 13.9413 36.1521 12.4693 36.8561 11.168C37.5815 9.86667 38.5628 8.85333 39.8001 8.128C41.0588 7.40267 42.4668 7.04 44.0241 7.04C45.5815 7.04 46.9788 7.40267 48.2161 8.128C49.4535 8.85333 50.4241 9.86667 51.1281 11.168C51.8321 12.448 52.1841 13.92 52.1841 15.584L52.1521 16.288ZM44.0241 8.992C42.4028 8.992 41.0375 9.51467 39.9281 10.56C38.8401 11.584 38.2215 12.928 38.0721 14.592H50.0081C49.8588 12.928 49.2295 11.584 48.1201 10.56C47.0321 9.51467 45.6668 8.992 44.0241 8.992ZM71.8806 7.04C73.4593 7.04 74.8886 7.40267 76.1686 8.128C77.4486 8.832 78.4513 9.83467 79.1766 11.136C79.902 12.4373 80.2646 13.92 80.2646 15.584C80.2646 17.248 79.902 18.7307 79.1766 20.032C78.4513 21.3333 77.4486 22.3467 76.1686 23.072C74.8886 23.7973 73.4593 24.16 71.8806 24.16C70.4726 24.16 69.2033 23.8613 68.0726 23.264C66.9633 22.6667 66.0673 21.8027 65.3846 20.672V24H63.2086V0.255999H65.4806V10.368C66.1846 9.28 67.0806 8.45867 68.1686 7.904C69.278 7.328 70.5153 7.04 71.8806 7.04ZM71.7206 22.144C72.894 22.144 73.9606 21.8773 74.9206 21.344C75.8806 20.7893 76.6273 20.0107 77.1606 19.008C77.7153 18.0053 77.9926 16.864 77.9926 15.584C77.9926 14.304 77.7153 13.1627 77.1606 12.16C76.6273 11.1573 75.8806 10.3893 74.9206 9.856C73.9606 9.30133 72.894 9.024 71.7206 9.024C70.526 9.024 69.4486 9.30133 68.4886 9.856C67.55 10.3893 66.8033 11.1573 66.2486 12.16C65.7153 13.1627 65.4486 14.304 65.4486 15.584C65.4486 16.864 65.7153 18.0053 66.2486 19.008C66.8033 20.0107 67.55 20.7893 68.4886 21.344C69.4486 21.8773 70.526 22.144 71.7206 22.144Z" fill="white"/>
</g>
<defs>
<filter id="filter0_ii" x="0.00346231" y="-0.268358" width="80.7855" height="24.9527" filterUnits="userSpaceOnUse" color-interpolation-filters="sRGB">
<feFlood flood-opacity="0" result="BackgroundImageFix"/>
<feBlend mode="normal" in="SourceGraphic" in2="BackgroundImageFix" result="shape"/>
<feColorMatrix in="SourceAlpha" type="matrix" values="0 0 0 0 0 0 0 0 0 0 0 0 0 0 0 0 0 0 127 0" result="hardAlpha"/>
<feOffset dx="0.52437" dy="0.52437"/>
<feGaussianBlur stdDeviation="0.262185"/>
<feComposite in2="hardAlpha" operator="arithmetic" k2="-1" k3="1"/>
<feColorMatrix type="matrix" values="0 0 0 0 0 0 0 0 0 0 0 0 0 0 0 0 0 0 0.5 0"/>
<feBlend mode="normal" in2="shape" result="effect1_innerShadow"/>
<feColorMatrix in="SourceAlpha" type="matrix" values="0 0 0 0 0 0 0 0 0 0 0 0 0 0 0 0 0 0 127 0" result="hardAlpha"/>
<feOffset dx="-0.52437" dy="-0.52437"/>
<feGaussianBlur stdDeviation="0.262185"/>
<feComposite in2="hardAlpha" operator="arithmetic" k2="-1" k3="1"/>
<feColorMatrix type="matrix" values="0 0 0 0 1 0 0 0 0 1 0 0 0 0 1 0 0 0 0.5 0"/>
<feBlend mode="normal" in2="effect1_innerShadow" result="effect2_innerShadow"/>
</filter>
</defs>
</svg>
